# xmcd
#
# Track frame offsets:
#	150
#	9162
#	23287
#	36015
#	47152
#	62120
#	75865
#	89092
#	100700
#	114262
#	123695
#	135150
#	147237
#	157962
#
# Disc length: 2268 seconds
#
# Revision: 0
# Processed by: cddbd v1.4PL0 Copyright (c) Steve Scherf et al.
# Submitted via: EasyCDDAExtractor 4.5.2.1
#
DISCID=9d08da0e
DTITLE=Dominoes (Jackie Wilson) - The Dominoes (with Jackie Wilson) Vol 3
DYEAR=1900
DGENRE=blues
TTITLE0=You Can't Keep A Good Man Down
TTITLE1=Until The Real Thing Comes Along
TTITLE2=I'm Gonna Move To The Outskirts Of Town
TTITLE3=Above Jacob's Ladder
TTITLE4=Love Me Now Or Let Me Go
TTITLE5=One Moment With You
TTITLE6=Bobby Sox Baby
TTITLE7=St. Louis Blues
TTITLE8=Tenderly
TTITLE9=Little Lie
TTITLE10=Three Coins In The Fountain
TTITLE11=Little Things Mean A Lot
TTITLE12=Give Me You
TTITLE13=Christmas In Heaven
EXTD=
EXTT0=
EXTT1=
EXTT2=
EXTT3=
EXTT4=
EXTT5=
EXTT6=
EXTT7=
EXTT8=
EXTT9=
EXTT10=
EXTT11=
EXTT12=
EXTT13=
PLAYORDER=
